<svg width="25" height="25" viewBox="0 0 25 25" fill="none" xmlns="http://www.w3.org/2000/svg">
<path d="M24.6948 23.0376L18.4771 16.8692C20.1715 14.8134 21.0046 12.1901 20.804 9.54195C20.6035 6.89384 19.3846 4.42349 17.3996 2.6419C15.4146 0.860312 12.8152 -0.096221 10.1392 -0.0298438C7.46324 0.0365333 4.91533 1.12074 3.02253 2.99852C1.12973 4.8763 0.0368461 7.40398 -0.0300621 10.0587C-0.0969702 12.7135 0.867216 15.2922 2.66306 17.2615C4.4589 19.2307 6.94901 20.4399 9.61831 20.6389C12.2876 20.8379 14.9319 20.0114 17.0042 18.3304L23.2219 24.4988C23.4184 24.687 23.6815 24.7912 23.9546 24.7888C24.2277 24.7865 24.489 24.6778 24.6821 24.4862C24.8753 24.2946 24.9848 24.0354 24.9872 23.7645C24.9896 23.4935 24.8846 23.2325 24.6948 23.0376ZM10.4167 18.6012C8.76851 18.6012 7.15734 18.1163 5.78693 17.2079C4.41652 16.2995 3.34842 15.0083 2.71769 13.4977C2.08696 11.9871 1.92193 10.3248 2.24347 8.72114C2.56502 7.11746 3.35869 5.64439 4.52413 4.4882C5.68956 3.33201 7.17442 2.54464 8.79093 2.22565C10.4074 1.90666 12.083 2.07037 13.6057 2.6961C15.1284 3.32182 16.4299 4.38145 17.3456 5.74098C18.2613 7.10052 18.75 8.69889 18.75 10.334C18.7475 12.5258 17.8688 14.6272 16.3065 16.1771C14.7442 17.7269 12.6261 18.5987 10.4167 18.6012Z" fill="black"/>
</svg>
